<?xml version="1.0" standalone="no"?>
<!DOCTYPE svg PUBLIC "-//W3C//DTD SVG 20010904//EN"
 "http://www.w3.org/TR/2001/REC-SVG-20010904/DTD/svg10.dtd">
<svg version="1.0" xmlns="http://www.w3.org/2000/svg"
 width="400.000000pt" height="400.000000pt" viewBox="0 0 400.000000 400.000000"
 preserveAspectRatio="xMidYMid meet">
<metadata>
Created by potrace 1.11, written by Peter Selinger 2001-2013
</metadata>
<g transform="translate(0.000000,400.000000) scale(0.100000,-0.100000)"
fill="#000000" stroke="none">
<path d="M3382 3407 c-157 -198 -222 -300 -251 -389 -7 -20 -19 -42 -27 -48
-20 -17 -18 -67 4 -79 15 -9 17 -32 19 -238 1 -167 -2 -248 -13 -303 -8 -41
-17 -88 -20 -104 -2 -16 -7 -32 -9 -36 -2 -3 -6 -19 -9 -34 -3 -16 -13 -39
-23 -53 -42 -59 -63 -100 -63 -125 0 -31 -59 -158 -73 -158 -5 0 -26 -13 -47
-30 -38 -30 -89 -54 -98 -46 -2 3 1 33 7 68 26 151 33 340 17 443 -28 177
-156 359 -305 435 -64 32 -165 61 -196 56 -11 -2 -23 1 -26 6 -4 6 -14 6 -28
-1 -19 -10 -21 -9 -21 11 l-1 23 -20 -25 c-21 -24 -21 -24 -35 -5 -14 19 -15
19 -38 -10 l-24 -30 -12 30 -12 30 -15 -43 c-15 -42 -33 -48 -33 -11 0 29 -18
13 -28 -24 -8 -30 -31 -39 -24 -9 2 8 -1 11 -7 7 -6 -3 -11 -14 -11 -24 0 -10
-19 -44 -42 -76 -50 -71 -76 -156 -71 -240 2 -33 5 -98 7 -145 2 -47 4 -95 5
-108 1 -15 18 -33 56 -57 30 -19 58 -43 63 -53 13 -26 14 -84 3 -114 -7 -20
-7 -29 4 -38 17 -14 86 -20 107 -9 16 9 16 12 -2 59 -32 82 -35 150 -5 150 6
0 31 -25 53 -55 37 -49 39 -56 24 -64 -13 -8 -10 -10 18 -9 19 0 40 -1 45 -2
21 -5 34 1 64 26 38 31 39 50 6 76 -34 26 -54 68 -45 93 24 66 -84 218 -203
284 -28 15 -32 22 -29 52 12 117 110 179 262 166 217 -18 362 -234 347 -517
-3 -52 -8 -102 -10 -110 -3 -8 -8 -30 -12 -48 -4 -19 -14 -36 -21 -39 -9 -3
-12 -14 -8 -28 4 -15 0 -26 -9 -32 -8 -4 -17 -19 -19 -33 -2 -17 -10 -26 -26
-28 -18 -3 -21 -7 -12 -17 16 -19 1 -45 -26 -45 -24 0 -33 -15 -13 -22 23 -8
-4 -38 -34 -38 -29 0 -30 0 -12 -20 24 -26 16 -25 -35 4 -42 24 -43 24 -84 6
-46 -21 -179 -21 -256 0 -23 6 -49 9 -58 5 -34 -13 -299 196 -287 227 6 14
-37 59 -88 92 -20 14 -107 144 -107 161 0 2 -13 32 -29 67 -32 69 -47 113 -65
192 -16 67 -20 157 -8 165 5 3 12 19 16 34 6 24 1 34 -32 65 -21 20 -57 63
-81 94 -35 47 -96 110 -217 226 -12 12 -41 36 -164 139 -153 128 -207 166
-110 77 118 -108 342 -334 386 -389 80 -101 123 -183 72 -139 -39 33 -244 174
-254 174 -3 0 -19 9 -35 20 -80 58 -319 158 -281 119 25 -27 12 -35 -60 -37
-163 -4 -293 -54 -452 -172 -34 -25 -168 -161 -163 -166 2 -2 28 20 58 48 60
59 106 98 115 98 3 0 17 9 31 20 44 34 48 27 48 -78 1 -92 10 -228 20 -282 2
-14 6 -43 9 -65 8 -61 16 -105 27 -155 5 -25 11 -54 14 -65 2 -11 13 -54 24
-95 17 -63 28 -102 55 -195 2 -5 8 -23 14 -38 7 -16 12 -31 12 -35 0 -23 161
-425 167 -418 1 1 5 18 7 37 15 111 32 203 61 329 12 50 47 175 51 182 3 5 25
-18 50 -51 51 -68 184 -197 270 -260 32 -25 75 -56 94 -71 63 -47 183 -126
258 -168 l72 -41 14 27 c15 29 112 128 142 146 33 18 59 17 132 -8 116 -39
216 -107 248 -167 18 -37 20 -35 -23 -37 -21 -2 -45 -5 -53 -7 -10 -3 -23 7
-35 28 -21 36 -59 69 -89 78 -24 7 -112 -23 -134 -45 -22 -22 -27 -90 -8 -105
9 -8 16 -22 16 -32 0 -31 38 -132 56 -149 10 -9 14 -10 9 -2 -4 7 -9 28 -11
45 -2 18 -7 45 -9 62 -7 36 7 23 25 -25 13 -34 70 -121 70 -107 0 4 -6 22 -13
40 -7 18 -14 57 -15 87 -1 30 1 48 5 40 18 -46 39 -88 55 -109 20 -26 24 -21
7 11 -16 29 -21 130 -7 126 18 -6 46 -69 52 -116 l6 -43 -113 -73 c-61 -40
-130 -83 -153 -96 l-41 -22 -79 44 c-126 72 -180 96 -267 122 -104 32 -167 36
-242 17 -49 -12 -69 -24 -111 -65 -141 -142 -60 -347 153 -382 147 -25 301 6
521 103 l103 46 144 -71 c320 -159 488 -187 764 -128 37 8 93 28 89 31 -2 2
-35 -3 -73 -12 -77 -16 -237 -22 -329 -10 -76 9 -249 67 -328 110 -167 91
-199 110 -191 117 19 17 311 168 348 180 22 7 52 19 67 26 25 13 29 12 53 -12
31 -31 59 -27 118 13 20 14 39 24 42 22 2 -3 0 -21 -4 -42 -10 -41 3 -42 13
-1 13 49 74 94 98 71 7 -7 26 -22 41 -32 33 -21 31 -48 -8 -104 -38 -54 -20
-50 35 7 l49 52 -5 -33 c-4 -17 -15 -49 -25 -70 -10 -21 -19 -40 -19 -43 0
-12 23 10 52 49 l30 42 -5 -57 c-3 -32 -2 -56 3 -53 18 11 39 124 37 198 -4
85 -11 96 -87 125 -69 27 -87 26 -146 -8 -67 -37 -84 -33 -24 7 92 61 168 133
233 219 37 49 82 103 99 121 32 33 124 81 208 109 47 15 52 15 77 -2 40 -25
68 -54 97 -98 14 -21 26 -33 26 -25 0 8 15 30 33 49 79 84 181 236 245 365 39
77 100 224 107 255 2 8 13 42 24 75 11 33 21 69 21 80 1 41 27 59 34 23 1 -7
9 -33 16 -58 7 -25 15 -49 16 -55 2 -5 14 -52 26 -104 l24 -95 11 40 c7 21 15
54 18 73 3 19 8 37 10 40 3 6 39 204 49 271 28 191 27 668 0 712 -3 5 -1 8 3
8 21 0 143 -156 143 -183 0 -6 3 -8 6 -5 15 16 -78 154 -158 235 -74 76 -146
108 -257 112 -9 1 -12 9 -9 25 5 24 4 25 -23 10 -68 -35 -208 -164 -309 -284
-23 -28 -44 -49 -46 -47 -15 15 96 220 202 375 66 95 75 124 16 49z m-1406
-2202 c16 -12 16 -14 3 -15 -9 0 -22 7 -29 15 -16 19 0 19 26 0z m-741 -251
c52 -15 173 -64 254 -102 l64 -30 -49 -22 c-69 -31 -176 -68 -215 -75 -19 -3
-43 -8 -53 -12 -43 -13 -156 -5 -188 14 -102 60 -93 173 17 225 44 20 106 21
170 2z"/>
<path d="M3725 1960 c3 -5 8 -10 11 -10 2 0 4 5 4 10 0 6 -5 10 -11 10 -5 0
-7 -4 -4 -10z"/>
<path d="M2710 579 c0 -5 5 -7 10 -4 6 3 10 8 10 11 0 2 -4 4 -10 4 -5 0 -10
-5 -10 -11z"/>
</g>
</svg>
